<?xml version="1.0" encoding="iso-8859-1"?>
<!-- Generator: Adobe Illustrator 19.0.0, SVG Export Plug-In . SVG Version: 6.00 Build 0)  -->
<svg version="1.1" id="Layer_1" xmlns="http://www.w3.org/2000/svg" xmlns:xlink="http://www.w3.org/1999/xlink" x="0px" y="0px"
	 viewBox="0 0 799.999 799.999" style="enable-background:new 0 0 799.999 799.999;" xml:space="preserve">
<g>
	<path style="fill:#259245;" d="M24.807,646.16V153.838h750.387V646.16H24.807z M345.218,259.063
		c-77.712,0-140.935,63.224-140.935,140.936s63.223,140.936,140.935,140.936c66.763,0,124.847-47.423,138.112-112.762
		c1.306-6.432-2.865-12.727-9.298-14.033c-0.113-0.022-0.229-0.037-0.344-0.053l-1.186-0.181l0.095-0.943
		c0.433-4.286,0.652-8.648,0.652-12.964c0-4.305-0.22-8.667-0.652-12.965l-0.095-0.944l1.182-0.178
		c0.116-0.016,0.233-0.031,0.351-0.054c6.43-1.306,10.601-7.601,9.295-14.033C470.066,306.486,411.982,259.063,345.218,259.063z"/>
	<path style="fill:#259245;" d="M25.807,645.16h748.387V154.838H25.807V645.16z M345.218,258.063
		c67.238,0,125.734,47.759,139.092,113.562c1.418,6.983-3.095,13.794-10.078,15.212c-0.214,0.043-0.425,0.063-0.639,0.096
		c0.433,4.296,0.657,8.654,0.657,13.065s-0.224,8.77-0.657,13.064c0.214,0.033,0.425,0.054,0.639,0.097
		c6.983,1.418,11.496,8.229,10.078,15.212c-13.359,65.804-71.855,113.563-139.092,113.563c-78.264,0-141.935-63.672-141.935-141.936
		C203.283,321.735,266.954,258.063,345.218,258.063z"/>
	<path d="M787.097,129.031H12.903C5.777,129.031,0,134.809,0,141.935v516.129c0,7.126,5.777,12.903,12.903,12.903h774.193
		c7.126,0,12.903-5.777,12.903-12.903V141.935C800,134.809,794.223,129.031,787.097,129.031z M774.193,645.16H25.807V154.838
		h748.387V645.16H774.193z"/>
	<path style="fill:#ED1F34;" d="M345.218,517.128c-64.585,0-117.129-52.544-117.129-117.129s52.544-117.129,117.129-117.129
		c55.488,0,103.761,39.402,114.782,93.69c1.119,5.518,6.016,9.522,11.643,9.522c0.599,0,1.205-0.046,1.801-0.137l1.041-0.159
		l0.105,1.047c0.439,4.356,0.662,8.786,0.662,13.166c0,4.363-0.223,8.792-0.662,13.164l-0.105,1.047l-1.04-0.158
		c-0.595-0.09-1.2-0.136-1.798-0.136c-5.629,0-10.527,4.004-11.646,9.521C448.979,477.726,400.706,517.128,345.218,517.128z"/>
	<path style="fill:#ED1F34;" d="M459.02,376.759c-10.927-53.824-58.787-92.889-113.802-92.889
		c-64.034,0-116.129,52.095-116.129,116.129s52.095,116.129,116.129,116.129c55.015,0,102.875-39.065,113.802-92.89
		c1.374-6.771,7.815-11.201,14.575-10.175c0.432-4.295,0.657-8.653,0.657-13.064c0-4.41-0.224-8.767-0.657-13.065
		C466.842,387.965,460.394,383.531,459.02,376.759z"/>
	<path d="M345.218,541.935c67.238,0,125.734-47.759,139.092-113.563c1.418-6.983-3.095-13.794-10.078-15.212
		c-0.214-0.043-0.425-0.063-0.639-0.097c-6.759-1.026-13.2,3.403-14.575,10.175c-10.925,53.824-58.785,92.89-113.8,92.89
		c-64.034,0-116.129-52.095-116.129-116.129S281.184,283.87,345.218,283.87c55.015,0,102.875,39.065,113.802,92.889
		c1.374,6.772,7.822,11.204,14.575,10.175c0.214-0.033,0.425-0.053,0.639-0.096c6.983-1.418,11.495-8.229,10.078-15.212
		c-13.361-65.803-71.857-113.562-139.094-113.562c-78.264,0-141.935,63.671-141.935,141.936
		C203.283,478.263,266.954,541.935,345.218,541.935z"/>
</g>
<g>
</g>
<g>
</g>
<g>
</g>
<g>
</g>
<g>
</g>
<g>
</g>
<g>
</g>
<g>
</g>
<g>
</g>
<g>
</g>
<g>
</g>
<g>
</g>
<g>
</g>
<g>
</g>
<g>
</g>
</svg>
